# Blender 3.3.1
# www.blender.org
o å¹³é¢
v 8.190370 1.016793 10.720840
v 7.125056 1.016793 -10.359592
v 8.723900 1.016793 -9.490683
v -11.662958 1.016793 -6.953485
v -11.662958 1.016793 -8.375203
v -9.671932 0.000000 10.320097
v -7.994095 0.000000 10.952031
v -7.994095 1.016793 10.952031
v -11.662958 0.000000 -8.375203
v -11.662958 0.000000 -6.953485
v 8.723900 0.000000 -9.490683
v 7.125056 0.000000 -10.359592
v -9.057131 0.000000 -11.662958
v -10.447043 0.000000 -11.307494
v -9.671932 1.016793 10.320097
v -11.132071 0.000000 -9.989040
v -11.096859 0.000000 -5.951228
v -10.555698 0.000000 -4.225328
v -10.440425 0.000000 -1.381893
v -11.016796 0.000000 1.576815
v -11.055222 0.000000 4.036000
v -10.632549 0.000000 6.648884
v -10.325151 0.000000 9.031219
v -6.060001 0.000000 10.952458
v -3.293418 0.000000 11.144583
v 0.011113 0.000000 11.144583
v 4.199411 0.000000 10.721910
v 8.190370 0.000000 10.720840
v 9.854141 0.000000 10.240598
v 10.960029 0.000000 8.768810
v 10.850109 0.000000 4.931553
v 10.962173 0.000000 2.883257
v 11.077444 0.000000 0.347223
v 10.731622 0.000000 -2.304086
v 10.654775 0.000000 -6.300265
v 10.032478 0.000000 -8.093237
v 5.210240 0.000000 -10.723396
v 2.777695 0.000000 -10.526989
v -0.181012 0.000000 -10.719111
v -3.562392 0.000000 -10.834385
v -6.098427 0.000000 -10.911235
v -7.816830 0.000000 -11.062791
v 9.854141 1.016793 10.240598
v -9.057131 1.016793 -11.662958
v -10.447043 1.016793 -11.307494
v -11.132071 1.016793 -9.989040
v -11.096859 1.016793 -5.951228
v -10.555698 1.016793 -4.225328
v -10.440425 1.016793 -1.381893
v -11.016796 1.016793 1.576815
v -11.055222 1.016793 4.036000
v -10.632549 1.016793 6.648884
v -10.325151 1.016793 9.031219
v -6.060001 1.016793 10.952458
v -3.293418 1.016793 11.144583
v 0.011113 1.016793 11.144583
v 4.199411 1.016793 10.721910
v 10.960029 1.016793 8.768810
v 10.850109 1.016793 4.931553
v 10.962173 1.016793 2.883257
v 11.077444 1.016793 0.347223
v 10.731622 1.016793 -2.304086
v 10.654775 1.016793 -6.300265
v 10.032478 1.016793 -8.093237
v 5.210240 1.016793 -10.723396
v 2.777695 1.016793 -10.526989
v -0.181012 1.016793 -10.719111
v -3.562392 1.016793 -10.834385
v -6.098427 1.016793 -10.911235
v -7.816830 1.016793 -11.062791
v -11.055222 1.296907 4.036000
v -10.632549 1.296907 6.648884
v -11.016796 1.296907 1.576815
v -10.440425 1.296907 -1.381893
v -10.555698 1.296907 -4.225328
v -11.096859 1.296907 -5.951228
v -11.662958 1.296907 -6.953485
v -11.132071 1.296907 -9.989040
v -11.662958 1.296907 -8.375203
v -10.447043 1.296907 -11.307494
v -9.057131 1.296907 -11.662958
v -9.671932 1.296907 10.320097
v -7.994095 1.296907 10.952031
v 8.190370 1.296907 10.720840
v 9.854141 1.296907 10.240598
v 8.723900 1.296907 -9.490683
v 7.125056 1.296907 -10.359592
v -10.325151 1.296907 9.031219
v -6.060001 1.296907 10.952458
v -3.293418 1.296907 11.144583
v 0.011113 1.296907 11.144583
v 4.199411 1.296907 10.721910
v 10.960029 1.296907 8.768810
v 10.850109 1.296907 4.931553
v 10.962173 1.296907 2.883257
v 11.077444 1.296907 0.347223
v 10.731622 1.296907 -2.304086
v 10.654775 1.296907 -6.300265
v 10.032478 1.296907 -8.093237
v 5.210240 1.296907 -10.723396
v 2.777695 1.296907 -10.526989
v -0.181012 1.296907 -10.719111
v -3.562392 1.296907 -10.834385
v -6.098427 1.296907 -10.911235
v -7.816830 1.296907 -11.062791
v -11.297262 1.097628 4.053548
v -10.872702 1.097628 6.683793
v -11.258162 1.097628 1.551620
v -10.682402 1.097628 -1.400304
v -10.794786 1.097628 -4.183751
v -11.319519 1.097628 -5.854718
v -11.897659 1.097628 -6.891784
v -11.355733 1.097628 -10.083206
v -11.902576 1.097628 -8.413603
v -10.597932 1.097628 -11.497558
v -9.032868 1.097628 -11.904417
v -9.833940 1.097628 10.500778
v -8.037592 1.097628 11.190777
v 8.224386 1.097628 10.961120
v 9.991908 1.097628 10.440378
v 8.872308 1.097628 -9.682690
v 7.206622 1.097628 -10.588150
v -10.557081 1.097628 9.102635
v -6.068439 1.097628 11.194988
v -3.301829 1.097628 11.387114
v 0.023311 1.097628 11.386952
v 4.211643 1.097628 10.964277
v 11.191295 1.097628 8.842350
v 11.092764 1.097628 4.934710
v 11.204546 1.097628 2.895395
v 11.319904 1.097628 0.337000
v 10.973625 1.097628 -2.322141
v 10.893674 1.097628 -6.342910
v 10.240209 1.097628 -8.218696
v 5.223240 1.097628 -10.965724
v 2.775787 1.097628 -10.769658
v -0.169014 1.097628 -10.961492
v -3.554583 1.097628 -11.076936
v -6.084085 1.097628 -11.153486
v -7.752259 1.097628 -11.296720
v -11.297262 1.216073 4.053548
v -10.872702 1.216073 6.683793
v -11.258162 1.216073 1.551620
v -10.682402 1.216073 -1.400304
v -10.794786 1.216073 -4.183751
v -11.319519 1.216073 -5.854718
v -11.897659 1.216073 -6.891784
v -11.355733 1.216073 -10.083206
v -11.902576 1.216073 -8.413603
v -10.597932 1.216073 -11.497558
v -9.032868 1.216073 -11.904417
v -9.833940 1.216073 10.500778
v -8.037592 1.216073 11.190777
v 8.224386 1.216073 10.961120
v 9.991908 1.216073 10.440378
v 8.872308 1.216073 -9.682690
v 7.206622 1.216073 -10.588150
v -10.557081 1.216073 9.102635
v -6.068439 1.216073 11.194988
v -3.301829 1.216073 11.387114
v 0.023311 1.216073 11.386952
v 4.211643 1.216073 10.964277
v 11.191295 1.216073 8.842350
v 11.092764 1.216073 4.934710
v 11.204546 1.216073 2.895395
v 11.319904 1.216073 0.337000
v 10.973625 1.216073 -2.322141
v 10.893674 1.216073 -6.342910
v 10.240209 1.216073 -8.218696
v 5.223240 1.216073 -10.965724
v 2.775787 1.216073 -10.769658
v -0.169014 1.216073 -10.961492
v -3.554583 1.216073 -11.076936
v -6.084085 1.216073 -11.153486
v -7.752259 1.216073 -11.296720
vn -0.0002 -0.0000 1.0000
vn 0.2773 -0.0000 0.9608
vn 0.3241 -0.9460 -0.0087
vn 0.9998 -0.0000 -0.0192
vn 0.4775 -0.0000 -0.8786
vn -0.8920 -0.0000 0.4521
vn 0.9916 -0.0000 -0.1293
vn -0.0000 1.0000 -0.0000
vn 0.9447 -0.0000 -0.3279
vn -0.0693 -0.0000 0.9976
vn -0.2478 -0.0000 -0.9688
vn 0.7299 -0.0000 -0.6835
vn -0.0000 -0.0000 1.0000
vn 0.1867 -0.0000 -0.9824
vn 0.1004 -0.0000 0.9949
vn -0.8874 -0.0000 -0.4611
vn -0.0805 -0.0000 -0.9968
vn 0.0003 -0.0000 1.0000
vn -0.9499 -0.0000 -0.3125
vn 0.0648 -0.0000 -0.9979
vn -0.8707 -0.0000 0.4918
vn 0.0341 -0.0000 -0.9994
vn -0.9542 -0.0000 0.2992
vn 0.0303 -0.0000 -0.9995
vn -0.9992 -0.0000 0.0405
vn 0.0879 -0.0000 -0.9961
vn -0.3525 -0.0000 0.9358
vn 0.7995 -0.0000 0.6007
vn -0.9815 -0.0000 -0.1912
vn 0.4356 -0.0000 -0.9002
vn 0.9996 -0.0000 -0.0286
vn -0.9999 -0.0000 -0.0156
vn 0.9985 -0.0000 0.0546
vn -0.9872 -0.0000 0.1597
vn -1.0000 -0.0000 -0.0000
vn 0.9990 -0.0000 0.0454
vn -0.9918 -0.0000 0.1280
vn -0.3180 0.9480 0.0129
vn -0.3180 -0.9480 0.0129
vn -0.0255 0.9482 -0.3167
vn 0.2655 -0.9433 0.1994
vn -0.3117 0.9482 -0.0608
vn -0.3117 -0.9482 -0.0608
vn 0.0596 0.9477 -0.3134
vn 0.0002 -0.9482 0.3176
vn -0.3171 0.9484 -0.0050
vn -0.3171 -0.9484 -0.0050
vn 0.2344 0.9471 -0.2193
vn 0.0318 -0.9486 0.3148
vn -0.3125 0.9486 0.0505
vn -0.3125 -0.9486 0.0505
vn 0.3031 0.9471 -0.1054
vn -0.0000 -0.9487 0.3163
vn 0.3179 0.9481 -0.0062
vn -0.0219 -0.9487 0.3154
vn 0.3141 0.9485 -0.0409
vn -0.0004 -0.9480 0.3184
vn 0.3162 0.9486 0.0143
vn -0.2920 -0.9447 0.1496
vn 0.3157 0.9487 0.0173
vn -0.3155 -0.9481 0.0409
vn 0.3241 0.9460 -0.0087
vn 0.2655 0.9433 0.1994
vn 0.0002 0.9482 0.3176
vn 0.0318 0.9486 0.3148
vn -0.0000 0.9487 0.3163
vn 0.1413 -0.9450 -0.2950
vn -0.0219 0.9487 0.3154
vn 0.0276 -0.9479 -0.3173
vn -0.0004 0.9480 0.3184
vn 0.0096 -0.9487 -0.3159
vn -0.2516 -0.0000 -0.9678
vn -0.0799 -0.0000 -0.9968
vn 0.0650 -0.0000 -0.9979
vn 0.0302 -0.0000 -0.9995
vn -0.9872 -0.0000 0.1594
vn 0.0008 -0.0000 1.0000
vn -0.3586 -0.0000 0.9335
vn 0.0855 -0.0000 -0.9963
vn 0.7998 -0.0000 0.6003
vn 0.4287 -0.0000 -0.9034
vn -0.9815 -0.0000 -0.1914
vn 0.9997 -0.0000 -0.0252
vn -0.9992 -0.0000 0.0403
vn 0.2826 -0.0000 0.9592
vn 0.9985 -0.0000 0.0547
vn -0.9541 -0.0000 0.2996
vn 0.4776 -0.0000 -0.8786
vn 0.9990 -0.0000 0.0450
vn -0.8734 -0.0000 0.4869
vn -1.0000 -0.0000 0.0032
vn 0.9916 -0.0000 -0.1291
vn 0.9998 -0.0000 -0.0199
vn -0.9503 -0.0000 -0.3113
vn 0.9443 -0.0000 -0.3290
vn -0.9916 -0.0000 0.1294
vn -0.8815 -0.0000 -0.4723
vn 0.7307 -0.0000 -0.6827
vn -0.8882 -0.0000 0.4594
vn 0.1870 -0.0000 -0.9824
vn -0.0021 -0.0000 1.0000
vn 0.0910 -0.9457 0.3119
vn 0.0205 0.9486 -0.3158
vn -0.3035 -0.9481 0.0952
vn -0.3035 0.9481 0.0952
vn 0.3157 -0.9487 0.0173
vn 0.1526 -0.9476 -0.2808
vn 0.0108 0.9487 -0.3159
vn -0.2803 -0.9469 0.1573
vn -0.2803 0.9469 0.1573
vn 0.3162 -0.9486 0.0143
vn -0.3226 -0.9465 0.0005
vn 0.0096 0.9487 -0.3159
vn -0.3024 0.9480 -0.0993
vn 0.3141 -0.9485 -0.0409
vn 0.0276 0.9479 -0.3173
vn -0.3024 -0.9480 -0.0993
vn -0.2910 0.9443 -0.1536
vn 0.3179 -0.9481 -0.0062
vn 0.1413 0.9450 -0.2950
vn -0.2910 -0.9443 -0.1536
vn -0.0845 0.9410 -0.3277
vn 0.3031 -0.9471 -0.1054
vn -0.1168 0.9446 0.3069
vn 0.2344 -0.9471 -0.2193
vn -0.0845 -0.9410 -0.3277
vn 0.0910 0.9457 0.3119
vn 0.0596 -0.9477 -0.3134
vn 0.1526 0.9476 -0.2808
vn -0.0255 -0.9482 -0.3167
vn -0.3226 0.9465 0.0005
vn 0.0205 -0.9486 -0.3158
vn -0.3155 0.9481 0.0409
vn 0.0108 -0.9487 -0.3159
vn -0.1168 -0.9446 0.3069
vn -0.2920 0.9447 0.1496
vt 0.798638 0.038696
vt 0.796991 1.000000
vt 0.889239 1.000000
vt 0.000000 0.798101
vt 0.000000 0.859051
vt 0.085357 0.000000
vt 0.177606 0.000000
vt 0.177606 0.000000
vt 0.000000 0.859051
vt 0.000000 0.798101
vt 0.889239 1.000000
vt 0.796991 1.000000
vt 0.111714 1.000000
vt 0.062286 1.000000
vt 0.085357 0.000000
vt 0.022759 0.928238
vt 0.029349 0.760213
vt 0.047469 0.681143
vt 0.052411 0.559243
vt 0.027701 0.432401
vt 0.026054 0.326974
vt 0.044174 0.214957
vt 0.057353 0.112825
vt 0.240203 0.030460
vt 0.358809 0.022223
vt 0.500476 0.022223
vt 0.680032 0.040343
vt 0.798638 0.038696
vt 0.973251 0.089762
vt 0.973252 0.195190
vt 0.960073 0.307206
vt 0.969957 0.376393
vt 0.974899 0.485114
vt 0.960073 0.598778
vt 0.956779 0.770097
vt 0.941953 0.928238
vt 0.704742 0.952947
vt 0.619082 0.951300
vt 0.492240 0.959537
vt 0.347277 0.964478
vt 0.238556 0.967773
vt 0.147954 0.977657
vt 0.973251 0.089762
vt 0.111714 1.000000
vt 0.062286 1.000000
vt 0.022759 0.928238
vt 0.029349 0.760213
vt 0.047469 0.681143
vt 0.052411 0.559243
vt 0.027701 0.432401
vt 0.026054 0.326974
vt 0.044174 0.214957
vt 0.057353 0.112825
vt 0.240203 0.030460
vt 0.358809 0.022223
vt 0.500476 0.022223
vt 0.680032 0.040343
vt 0.973252 0.195190
vt 0.960073 0.307206
vt 0.969957 0.376393
vt 0.974899 0.485114
vt 0.960073 0.598778
vt 0.956779 0.770097
vt 0.941953 0.928238
vt 0.704742 0.952947
vt 0.619082 0.951300
vt 0.492240 0.959537
vt 0.347277 0.964478
vt 0.238556 0.967773
vt 0.147954 0.977657
vt 0.026054 0.326974
vt 0.044174 0.214957
vt 0.027701 0.432401
vt 0.052411 0.559243
vt 0.047469 0.681143
vt 0.029349 0.760213
vt 0.000000 0.798101
vt 0.022759 0.928238
vt 0.000000 0.859051
vt 0.062286 1.000000
vt 0.111714 1.000000
vt 0.085357 0.000000
vt 0.177606 0.000000
vt 0.798638 0.038696
vt 0.973251 0.089762
vt 0.889239 1.000000
vt 0.796991 1.000000
vt 0.057353 0.112825
vt 0.240203 0.030460
vt 0.358809 0.022223
vt 0.500476 0.022223
vt 0.680032 0.040343
vt 0.973252 0.195190
vt 0.960073 0.307206
vt 0.969957 0.376393
vt 0.974899 0.485114
vt 0.960073 0.598778
vt 0.956779 0.770097
vt 0.941953 0.928238
vt 0.704742 0.952947
vt 0.619082 0.951300
vt 0.492240 0.959537
vt 0.347277 0.964478
vt 0.238556 0.967773
vt 0.147954 0.977657
vt 0.026054 0.326974
vt 0.044174 0.214957
vt 0.027701 0.432401
vt 0.052411 0.559243
vt 0.047469 0.681143
vt 0.029349 0.760213
vt 0.000000 0.798101
vt 0.022759 0.928238
vt 0.000000 0.859051
vt 0.062286 1.000000
vt 0.111714 1.000000
vt 0.085357 0.000000
vt 0.177606 0.000000
vt 0.798638 0.038696
vt 0.973251 0.089762
vt 0.889239 1.000000
vt 0.796991 1.000000
vt 0.057353 0.112825
vt 0.240203 0.030460
vt 0.358809 0.022223
vt 0.500476 0.022223
vt 0.680032 0.040343
vt 0.973252 0.195190
vt 0.960073 0.307206
vt 0.969957 0.376393
vt 0.974899 0.485114
vt 0.960073 0.598778
vt 0.956779 0.770097
vt 0.941953 0.928238
vt 0.704742 0.952947
vt 0.619082 0.951300
vt 0.492240 0.959537
vt 0.347277 0.964478
vt 0.238556 0.967773
vt 0.147954 0.977657
vt 0.026054 0.326974
vt 0.044174 0.214957
vt 0.027701 0.432401
vt 0.052411 0.559243
vt 0.047469 0.681143
vt 0.029349 0.760213
vt 0.000000 0.798101
vt 0.022759 0.928238
vt 0.000000 0.859051
vt 0.062286 1.000000
vt 0.111714 1.000000
vt 0.085357 0.000000
vt 0.177606 0.000000
vt 0.798638 0.038696
vt 0.973251 0.089762
vt 0.889239 1.000000
vt 0.796991 1.000000
vt 0.057353 0.112825
vt 0.240203 0.030460
vt 0.358809 0.022223
vt 0.500476 0.022223
vt 0.680032 0.040343
vt 0.973252 0.195190
vt 0.960073 0.307206
vt 0.969957 0.376393
vt 0.974899 0.485114
vt 0.960073 0.598778
vt 0.956779 0.770097
vt 0.941953 0.928238
vt 0.704742 0.952947
vt 0.619082 0.951300
vt 0.492240 0.959537
vt 0.347277 0.964478
vt 0.238556 0.967773
vt 0.147954 0.977657
s 0
f 7/7/1 24/24/1 54/54/1 8/8/1
f 28/28/2 29/29/2 43/43/2 1/1/2
f 58/58/3 59/59/3 129/129/3 128/128/3
f 34/34/4 35/35/4 63/63/4 62/62/4
f 11/11/5 12/12/5 2/2/5 3/3/5
f 23/23/6 6/6/6 15/15/6 53/53/6
f 33/33/7 34/34/7 62/62/7 61/61/7
f 79/79/8 77/77/8 76/76/8
f 35/35/9 36/36/9 64/64/9 63/63/9
f 24/24/10 25/25/10 55/55/10 54/54/10
f 13/13/11 14/14/11 45/45/11 44/44/11
f 36/36/12 11/11/12 3/3/12 64/64/12
f 25/25/13 26/26/13 56/56/13 55/55/13
f 12/12/14 37/37/14 65/65/14 2/2/14
f 26/26/15 27/27/15 57/57/15 56/56/15
f 14/14/16 16/16/16 46/46/16 45/45/16
f 37/37/17 38/38/17 66/66/17 65/65/17
f 27/27/18 28/28/18 1/1/18 57/57/18
f 16/16/19 9/9/19 5/5/19 46/46/19
f 38/38/20 39/39/20 67/67/20 66/66/20
f 10/10/21 17/17/21 47/47/21 4/4/21
f 39/39/22 40/40/22 68/68/22 67/67/22
f 17/17/23 18/18/23 48/48/23 47/47/23
f 40/40/24 41/41/24 69/69/24 68/68/24
f 18/18/25 19/19/25 49/49/25 48/48/25
f 41/41/26 42/42/26 70/70/26 69/69/26
f 6/6/27 7/7/27 8/8/27 15/15/27
f 29/29/28 30/30/28 58/58/28 43/43/28
f 19/19/29 20/20/29 50/50/29 49/49/29
f 42/42/30 13/13/30 44/44/30 70/70/30
f 30/30/31 31/31/31 59/59/31 58/58/31
f 20/20/32 21/21/32 51/51/32 50/50/32
f 31/31/33 32/32/33 60/60/33 59/59/33
f 21/21/34 22/22/34 52/52/34 51/51/34
f 9/9/35 10/10/35 4/4/35 5/5/35
f 32/32/36 33/33/36 61/61/36 60/60/36
f 22/22/37 23/23/37 53/53/37 52/52/37
f 74/74/38 75/75/38 145/145/38 144/144/38
f 48/48/39 49/49/39 109/109/39 110/110/39
f 101/101/40 100/100/40 170/170/40 171/171/40
f 43/43/41 58/58/41 128/128/41 120/120/41
f 73/73/42 74/74/42 144/144/42 143/143/42
f 49/49/43 50/50/43 108/108/43 109/109/43
f 100/100/44 87/87/44 157/157/44 170/170/44
f 57/57/45 1/1/45 119/119/45 127/127/45
f 71/71/46 73/73/46 143/143/46 141/141/46
f 50/50/47 51/51/47 106/106/47 108/108/47
f 86/86/48 99/99/48 169/169/48 156/156/48
f 56/56/49 57/57/49 127/127/49 126/126/49
f 72/72/50 71/71/50 141/141/50 142/142/50
f 51/51/51 52/52/51 107/107/51 106/106/51
f 99/99/52 98/98/52 168/168/52 169/169/52
f 55/55/53 56/56/53 126/126/53 125/125/53
f 98/98/54 97/97/54 167/167/54 168/168/54
f 54/54/55 55/55/55 125/125/55 124/124/55
f 97/97/56 96/96/56 166/166/56 167/167/56
f 8/8/57 54/54/57 124/124/57 118/118/57
f 96/96/58 95/95/58 165/165/58 166/166/58
f 53/53/59 15/15/59 117/117/59 123/123/59
f 95/95/60 94/94/60 164/164/60 165/165/60
f 52/52/61 53/53/61 123/123/61 107/107/61
f 94/94/62 93/93/62 163/163/62 164/164/62
f 93/93/63 85/85/63 155/155/63 163/163/63
f 84/84/64 92/92/64 162/162/64 154/154/64
f 92/92/65 91/91/65 161/161/65 162/162/65
f 91/91/66 90/90/66 160/160/66 161/161/66
f 70/70/67 44/44/67 116/116/67 140/140/67
f 90/90/68 89/89/68 159/159/68 160/160/68
f 69/69/69 70/70/69 140/140/69 139/139/69
f 89/89/70 83/83/70 153/153/70 159/159/70
f 68/68/71 69/69/71 139/139/71 138/138/71
f 116/116/72 115/115/72 150/150/72 151/151/72
f 135/135/73 136/136/73 171/171/73 170/170/73
f 124/124/10 125/125/10 160/160/10 159/159/10
f 136/136/74 137/137/74 172/172/74 171/171/74
f 125/125/13 126/126/13 161/161/13 160/160/13
f 137/137/22 138/138/22 173/173/22 172/172/22
f 126/126/15 127/127/15 162/162/15 161/161/15
f 138/138/75 139/139/75 174/174/75 173/173/75
f 106/106/76 107/107/76 142/142/76 141/141/76
f 127/127/77 119/119/77 154/154/77 162/162/77
f 117/117/78 118/118/78 153/153/78 152/152/78
f 139/139/79 140/140/79 175/175/79 174/174/79
f 108/108/32 106/106/32 141/141/32 143/143/32
f 120/120/80 128/128/80 163/163/80 155/155/80
f 140/140/81 116/116/81 151/151/81 175/175/81
f 109/109/82 108/108/82 143/143/82 144/144/82
f 128/128/83 129/129/83 164/164/83 163/163/83
f 110/110/84 109/109/84 144/144/84 145/145/84
f 119/119/85 120/120/85 155/155/85 154/154/85
f 129/129/86 130/130/86 165/165/86 164/164/86
f 111/111/87 110/110/87 145/145/87 146/146/87
f 121/121/88 122/122/88 157/157/88 156/156/88
f 130/130/89 131/131/89 166/166/89 165/165/89
f 112/112/90 111/111/90 146/146/90 147/147/90
f 114/114/91 112/112/91 147/147/91 149/149/91
f 131/131/92 132/132/92 167/167/92 166/166/92
f 132/132/93 133/133/93 168/168/93 167/167/93
f 113/113/94 114/114/94 149/149/94 148/148/94
f 133/133/95 134/134/95 169/169/95 168/168/95
f 107/107/96 123/123/96 158/158/96 142/142/96
f 115/115/97 113/113/97 148/148/97 150/150/97
f 134/134/98 121/121/98 156/156/98 169/169/98
f 123/123/99 117/117/99 152/152/99 158/158/99
f 122/122/100 135/135/100 170/170/100 157/157/100
f 118/118/101 124/124/101 159/159/101 153/153/101
f 1/1/102 43/43/102 120/120/102 119/119/102
f 102/102/103 101/101/103 171/171/103 172/172/103
f 47/47/104 48/48/104 110/110/104 111/111/104
f 75/75/105 76/76/105 146/146/105 145/145/105
f 59/59/106 60/60/106 130/130/106 129/129/106
f 3/3/107 2/2/107 122/122/107 121/121/107
f 103/103/108 102/102/108 172/172/108 173/173/108
f 4/4/109 47/47/109 111/111/109 112/112/109
f 76/76/110 77/77/110 147/147/110 146/146/110
f 60/60/111 61/61/111 131/131/111 130/130/111
f 5/5/112 4/4/112 112/112/112 114/114/112
f 104/104/113 103/103/113 173/173/113 174/174/113
f 79/79/114 78/78/114 148/148/114 149/149/114
f 61/61/115 62/62/115 132/132/115 131/131/115
f 105/105/116 104/104/116 174/174/116 175/175/116
f 46/46/117 5/5/117 114/114/117 113/113/117
f 78/78/118 80/80/118 150/150/118 148/148/118
f 62/62/119 63/63/119 133/133/119 132/132/119
f 81/81/120 105/105/120 175/175/120 151/151/120
f 45/45/121 46/46/121 113/113/121 115/115/121
f 80/80/122 81/81/122 151/151/122 150/150/122
f 63/63/123 64/64/123 134/134/123 133/133/123
f 83/83/124 82/82/124 152/152/124 153/153/124
f 64/64/125 3/3/125 121/121/125 134/134/125
f 44/44/126 45/45/126 115/115/126 116/116/126
f 85/85/127 84/84/127 154/154/127 155/155/127
f 2/2/128 65/65/128 135/135/128 122/122/128
f 87/87/129 86/86/129 156/156/129 157/157/129
f 65/65/130 66/66/130 136/136/130 135/135/130
f 77/77/131 79/79/131 149/149/131 147/147/131
f 66/66/132 67/67/132 137/137/132 136/136/132
f 88/88/133 72/72/133 142/142/133 158/158/133
f 67/67/134 68/68/134 138/138/134 137/137/134
f 15/15/135 8/8/135 118/118/135 117/117/135
f 82/82/136 88/88/136 158/158/136 152/152/136
f 105/105/8 81/81/8 80/80/8 78/78/8
f 72/72/8 88/88/8 89/89/8 90/90/8
f 75/75/8 74/74/8 103/103/8 104/104/8
f 78/78/8 79/79/8 105/105/8
f 100/100/8 101/101/8 98/98/8 87/87/8
f 98/98/8 99/99/8 86/86/8 87/87/8
f 96/96/8 74/74/8 73/73/8 91/91/8
f 91/91/8 92/92/8 95/95/8 96/96/8
f 104/104/8 105/105/8 79/79/8 76/76/8 75/75/8
f 94/94/8 95/95/8 92/92/8 84/84/8
f 97/97/8 98/98/8 101/101/8 102/102/8
f 71/71/8 72/72/8 90/90/8
f 89/89/8 88/88/8 82/82/8 83/83/8
f 90/90/8 91/91/8 73/73/8 71/71/8
f 94/94/8 84/84/8 85/85/8 93/93/8
f 96/96/8 97/97/8 102/102/8 103/103/8 74/74/8
